# xmcd
#
# Track frame offsets:
#	150
#	26391
#	40579
#	58308
#	71060
#	88240
#	105996
#	126651
#	141817
#	163921
#
# Disc length: 2487 seconds
#
# Revision: 1
# Processed by: cddbd v1.5.2PL0 Copyright (c) Steve Scherf et al.
# Submitted via: dBpowerAMP V4.0
#
DISCID=8f09b50a
DTITLE=Boyz II Men - The Best of Boyz II Men - The Millennium Colle
DYEAR=2003
DGENRE=R&B
TTITLE0=End Of The Road
TTITLE1=It's So Hard To Say Goodbye To Yesterday (Radio Version)
TTITLE2=Motownphilly
TTITLE3=In The Still Of The Night (I'll Remember)
TTITLE4=Uhh Ahh
TTITLE5=I'll Make Love To You
TTITLE6=Thank You
TTITLE7=Water Runs Dry
TTITLE8=4 Seasons of Loneliness
TTITLE9=A Song For Mama
EXTD=My name is Peter W. Chao.
EXTT0=
EXTT1=
EXTT2=
EXTT3=
EXTT4=
EXTT5=
EXTT6=
EXTT7=
EXTT8=
EXTT9=
PLAYORDER=
